HIERARCHY
ROOT Hips
{
	OFFSET	0.00	0.00	0.00
	CHANNELS 6 Xposition Yposition Zposition Zrotation Xrotation Yrotation
	JOINT LeftUpLeg
	{
		OFFSET	 0.126116	-0.014019	-0.065224
		CHANNELS 3 Zrotation Xrotation Yrotation
		JOINT LeftLeg
		{
			OFFSET	 0.000000	 0.000000	 0.569914
			CHANNELS 3 Zrotation Xrotation Yrotation
			JOINT LeftFoot
			{
				OFFSET	 0.000000	 0.000000	 0.544423
				CHANNELS 3 Zrotation Xrotation Yrotation
				JOINT LeftToeBase
				{
					OFFSET	 0.000000	 0.000000	 0.207117
					CHANNELS 3 Zrotation Xrotation Yrotation
					End Site
					{
						OFFSET	 0.000000	 0.000000	 0.207117
					}
				}
			}
		}
	}
	JOINT RightUpLeg
	{
		OFFSET	-0.124023	-0.008373	-0.065224
		CHANNELS 3 Zrotation Xrotation Yrotation
		JOINT RightLeg
		{
			OFFSET	 0.000000	 0.000000	 0.570047
			CHANNELS 3 Zrotation Xrotation Yrotation
			JOINT RightFoot
			{
				OFFSET	 0.000000	 0.000000	 0.544354
				CHANNELS 3 Zrotation Xrotation Yrotation
				JOINT RightToeBase
				{
					OFFSET	 0.000000	 0.000000	 0.207540
					CHANNELS 3 Zrotation Xrotation Yrotation
					End Site
					{
						OFFSET	 0.000000	 0.000000	 0.207540
					}
				}
			}
		}
	}
	JOINT Spine
	{
		OFFSET	 0.000184	-0.007763	 0.117403
		CHANNELS 3 Zrotation Xrotation Yrotation
		JOINT Spine1
		{
			OFFSET	 0.000000	 0.000000	 0.137269
			CHANNELS 3 Zrotation Xrotation Yrotation
			JOINT Spine2
			{
				OFFSET	 0.000000	 0.000000	 0.156879
				CHANNELS 3 Zrotation Xrotation Yrotation
				JOINT LeftShoulder
				{
					OFFSET	 0.080501	-0.002496	 0.160144
					CHANNELS 3 Zrotation Xrotation Yrotation
					JOINT LeftArm
					{
						OFFSET	 0.000000	 0.000000	 0.164363
						CHANNELS 3 Zrotation Xrotation Yrotation
						JOINT LeftForeArm
						{
							OFFSET	 0.000000	 0.000000	 0.364576
							CHANNELS 3 Zrotation Xrotation Yrotation
							JOINT LeftHand
							{
								OFFSET	 0.000000	 0.000000	 0.360812
								CHANNELS 3 Zrotation Xrotation Yrotation
								JOINT LeftHandIndex1
								{
									OFFSET	 0.000000	 0.000000	 0.086006
									CHANNELS 3 Zrotation Xrotation Yrotation
									JOINT LeftHandIndex2
									{
										OFFSET	 0.000000	 0.000000	 0.047236
										CHANNELS 3 Zrotation Xrotation Yrotation
										JOINT LeftHandIndex3
										{
											OFFSET	-0.004284	-0.000551	 0.038166
											CHANNELS 3 Zrotation Xrotation Yrotation
											End Site
											{
												OFFSET	-0.004284	-0.000551	 0.038166
											}
										}
									}
								}
							}
						}
					}
				}
				JOINT Neck
				{
					OFFSET	 0.000000	 0.000000	 0.176489
					CHANNELS 3 Zrotation Xrotation Yrotation
					JOINT Head
					{
						OFFSET	 0.000000	-0.001747	 0.077940
						CHANNELS 3 Zrotation Xrotation Yrotation
						End Site
						{
							OFFSET	 0.000000	-0.001747	 0.077940
						}
					}
				}
				JOINT RightShoulder
				{
					OFFSET	-0.080363	 0.000306	 0.159706
					CHANNELS 3 Zrotation Xrotation Yrotation
					JOINT RightArm
					{
						OFFSET	 0.000000	 0.000000	 0.164196
						CHANNELS 3 Zrotation Xrotation Yrotation
						JOINT RightForeArm
						{
							OFFSET	 0.000000	 0.000000	 0.365611
							CHANNELS 3 Zrotation Xrotation Yrotation
							JOINT RightHand
							{
								OFFSET	 0.000000	 0.000000	 0.360648
								CHANNELS 3 Zrotation Xrotation Yrotation
								JOINT RightHandIndex1
								{
									OFFSET	 0.000000	 0.000000	 0.069977
									CHANNELS 3 Zrotation Xrotation Yrotation
									JOINT RightHandIndex2
									{
										OFFSET	 0.000000	 0.000000	 0.052305
										CHANNELS 3 Zrotation Xrotation Yrotation
										JOINT RightHandIndex3
										{
											OFFSET	 0.009002	-0.000782	 0.042196
											CHANNELS 3 Zrotation Xrotation Yrotation
											End Site
											{
												OFFSET	 0.009002	-0.000782	 0.042196
											}
										}
									}
								}
							}
						}
					}
				}
			}
		}
	}
}
MOTION
Frames:    9
Frame Time: 0.03333334
-0.023336	 0.226831	 1.148769	 0.415664	 25.679710	-3.209204	-0.482122	-65.433840	 178.810900	 4.070335	-57.192150	 3.817832	-0.648208	 71.122120	-0.601752	-2.385833	 28.452750	 0.000004	 17.601870	-66.131610	-165.500900	-11.723850	-58.941650	-5.641207	 17.848630	 70.429420	-6.422866	 2.384659	 28.388700	-0.000001	-5.128910	 13.434690	 1.070854	-2.537374	 22.952840	 2.931711	 2.822581	-7.877275	-0.018066	-93.048230	 76.871250	 161.412100	 14.609330	 14.037790	-57.761310	-18.019520	 10.724700	-25.047230	-43.693050	-65.494970	-32.264740	-2.027600	 6.559038	 9.033609	-5.188889	 0.308190	 3.541030	-5.234859	 0.342567	 0.430617	-1.663974	-13.144430	-2.364141	 3.769111	 2.776504	-1.893852	 94.273830	 68.858020	-164.011400	-13.694220	 13.857430	 50.887650	 1.847887	 11.458460	 50.317880	 12.530920	-63.784260	 17.733960	 1.803333	 3.979147	-15.098590	 4.898592	 3.004813	-9.310344	 5.224449	 0.395017	 2.014677
-0.022740	 0.226308	 1.151966	 0.500713	 25.465150	-3.137593	-0.575703	-64.873800	 178.781600	 4.076980	-56.665300	 3.784019	-0.557732	 70.937940	-0.710419	-2.385833	 28.452750	 0.000004	 16.982570	-65.569280	-166.034500	-11.464060	-58.415870	-5.387926	 17.748080	 70.275080	-6.373593	 2.384659	 28.388700	-0.000001	-4.961304	 13.298600	 0.996766	-2.563385	 22.932800	 2.888083	 2.891505	-8.098966	-0.068383	-93.186740	 76.645970	 161.687700	 14.824640	 14.175550	-57.343850	-17.767650	 11.083200	-25.792340	-43.287940	-65.311330	-32.200380	-2.027600	 6.559038	 9.033609	-5.188889	 0.308190	 3.541030	-5.234859	 0.342567	 0.430617	-1.666353	-13.354210	-2.175545	 3.830879	 2.974766	-2.006267	 94.201060	 68.963910	-164.137600	-13.956700	 14.206280	 50.669470	 1.699819	 11.479300	 50.770340	 12.060470	-63.607700	 17.425360	 1.803333	 3.979147	-15.098590	 4.898592	 3.004813	-9.310344	 5.224449	 0.395017	 2.014677
-0.021403	 0.224953	 1.159541	 0.701135	 24.963280	-2.981997	-0.785023	-63.539980	 178.725000	 4.092563	-55.397720	 3.703332	-0.390303	 70.495100	-0.918680	-2.385833	 28.452750	 0.000004	 15.628190	-64.228370	-167.187400	-10.882800	-57.149800	-4.823941	 17.484800	 69.899020	-6.231830	 2.384659	 28.388700	-0.000001	-4.549077	 12.957230	 0.834105	-2.614976	 22.870200	 2.787023	 3.044560	-8.611732	-0.184702	-93.485400	 76.116680	 162.308100	 15.334980	 14.503480	-56.427980	-17.177350	 11.850500	-27.447480	-42.225710	-64.783180	-31.973350	-2.027600	 6.559038	 9.033609	-5.188889	 0.308190	 3.541030	-5.234859	 0.342567	 0.430617	-1.669157	-13.846600	-1.733042	 3.969364	 3.440144	-2.271737	 94.031600	 69.212540	-164.435600	-14.562160	 15.016590	 50.123980	 1.344406	 11.524920	 51.867440	 10.922040	-63.083840	 16.696610	 1.803333	 3.979147	-15.098590	 4.898592	 3.004813	-9.310344	 5.224449	 0.395017	 2.014677
-0.020800	 0.224257	 1.163140	 0.796004	 24.728680	-2.913856	-0.879379	-62.903580	 178.703200	 4.099862	-54.785620	 3.664646	-0.329944	 70.281010	-0.997008	-2.385833	 28.452750	 0.000004	 15.035190	-63.587640	-167.685500	-10.622600	-56.537770	-4.572846	 17.351120	 69.715050	-6.155324	 2.384659	 28.388700	-0.000001	-4.346476	 12.786610	 0.761987	-2.634761	 22.833830	 2.739408	 3.112296	-8.849572	-0.238325	-93.613880	 75.867490	 162.587900	 15.575820	 14.658970	-56.020980	-16.899230	 12.181860	-28.190970	-41.675770	-64.487530	-31.833800	-2.027600	 6.559038	 9.033609	-5.188889	 0.308190	 3.541030	-5.234859	 0.342567	 0.430617	-1.669143	-14.078140	-1.524987	 4.031322	 3.658997	-2.397326	 93.952600	 69.329450	-164.576600	-14.841880	 15.393610	 49.852370	 1.173626	 11.544450	 52.399700	 10.373860	-62.784120	 16.355800	 1.803333	 3.979147	-15.098590	 4.898592	 3.004813	-9.310344	 5.224449	 0.395017	 2.014677
-0.020238	 0.223560	 1.166590	 0.886998	 24.505020	-2.851182	-0.967648	-62.290440	 178.684400	 4.106985	-54.192710	 3.627477	-0.281673	 70.073730	-1.061471	-2.385833	 28.452750	 0.000004	 14.492590	-62.969790	-168.137500	-10.381910	-55.944560	-4.341487	 17.219760	 69.535750	-6.078423	 2.384659	 28.388700	-0.000001	-4.148179	 12.618600	 0.695268	-2.651320	 22.795530	 2.693924	 3.174398	-9.074921	-0.288944	-93.730120	 75.629320	 162.848600	 15.804780	 14.807590	-55.642790	-16.632880	 12.483970	-28.885810	-41.122730	-64.176940	-31.683580	-2.027600	 6.559038	 9.033609	-5.188889	 0.308190	 3.541030	-5.234859	 0.342567	 0.430617	-1.668332	-14.299200	-1.326365	 4.088579	 3.867987	-2.517687	 93.877500	 69.441120	-164.711600	-15.106100	 15.751480	 49.587130	 1.009127	 11.561180	 52.914280	 9.845059	-62.466140	 16.033870	 1.803333	 3.979147	-15.098590	 4.898592	 3.004813	-9.310344	 5.224449	 0.395017	 2.014677
-0.019698	 0.222845	 1.169994	 0.976905	 24.284750	-2.791249	-1.053282	-61.681820	 178.667300	 4.114262	-53.602190	 3.590751	-0.242023	 69.867580	-1.115988	-2.385833	 28.452750	 0.000004	 13.979360	-62.355950	-168.561900	-10.152300	-55.353320	-4.121698	 17.088290	 69.356580	-6.000330	 2.384659	 28.388700	-0.000001	-3.948649	 12.449440	 0.631300	-2.665449	 22.754430	 2.649082	 3.233002	-9.295061	-0.338250	-93.838390	 75.394900	 163.099000	 16.028450	 14.953650	-55.279000	-16.369640	 12.769150	-29.557480	-40.553690	-63.844440	-31.521480	-2.027600	 6.559038	 9.033609	-5.188889	 0.308190	 3.541030	-5.234859	 0.342567	 0.430617	-1.666784	-14.516710	-1.130920	 4.143073	 4.073719	-2.636518	 93.804090	 69.550950	-164.845000	-15.363410	 16.101710	 49.322650	 0.846511	 11.575500	 53.423960	 9.321015	-62.122840	 15.722080	 1.803333	 3.979147	-15.098590	 4.898592	 3.004813	-9.310344	 5.224449	 0.395017	 2.014677
-0.019212	 0.222081	 1.173421	 1.059977	 24.076040	-2.735428	-1.332284	-61.072350	 178.479600	 4.023805	-52.999200	 3.548754	-0.233706	 69.648110	-1.143842	-2.385833	 28.452750	 0.000004	 13.484120	-61.746620	-168.968000	-9.922773	-54.749600	-3.903673	 16.904510	 69.161790	-5.878032	 2.384659	 28.388700	-0.000001	-3.750716	 12.266440	 0.584608	-2.665615	 22.709550	 2.599740	 3.285506	-9.516136	-0.375355	-93.932540	 75.177520	 163.335400	 16.268610	 15.082120	-54.929490	-16.105850	 13.036250	-30.206840	-39.841720	-63.492290	-31.215160	-2.027600	 6.559038	 9.033609	-5.188889	 0.308190	 3.541030	-5.234859	 0.342567	 0.430617	-1.671362	-14.686030	-1.001640	 4.200244	 4.245263	-2.705823	 93.770780	 69.525230	-165.007200	-15.601200	 16.340860	 48.991190	 0.681078	 11.597550	 53.972290	 8.764448	-61.718150	 15.409220	 1.803333	 3.979147	-15.098590	 4.898592	 3.004813	-9.310344	 5.224449	 0.395017	 2.014677
-0.018833	 0.221290	 1.176721	 1.126151	 23.898140	-2.688351	-1.456601	-60.500700	 178.423600	 3.996839	-52.408360	 3.499644	-0.275073	 69.416930	-1.130319	-2.385833	 28.452750	 0.000004	 13.026700	-61.179730	-169.339600	-9.698750	-54.159020	-3.693102	 16.638850	 68.950780	-5.685584	 2.384659	 28.388700	-0.000001	-3.569529	 12.070850	 0.570157	-2.642316	 22.662780	 2.544595	 3.326572	-9.729502	-0.389005	-94.002530	 75.001740	 163.541300	 16.528540	 15.172500	-54.614840	-15.854580	 13.268920	-30.795280	-38.933460	-63.143200	-30.680140	-2.027600	 6.559038	 9.033609	-5.188889	 0.308190	 3.541030	-5.234859	 0.342567	 0.430617	-1.688038	-14.759740	-0.998609	 4.260612	 4.346784	-2.681513	 93.809230	 69.254620	-165.211400	-15.793180	 16.368170	 48.556020	 0.519126	 11.634210	 54.560750	 8.182686	-61.247990	 15.108420	 1.803333	 3.979147	-15.098590	 4.898592	 3.004813	-9.310344	 5.224449	 0.395017	 2.014677
-0.016960	 0.216726	 1.194193	 1.486636	 22.897200	-2.433362	-2.091241	-57.329980	 178.151800	 3.874273	-49.182970	 3.249886	-0.529213	 68.180890	-0.993151	-2.385833	 28.452750	 0.000004	 10.783290	-58.018460	-171.131700	-8.604495	-50.921240	-2.685843	 15.313980	 67.813140	-4.744406	 2.384659	 28.388700	-0.000001	-2.554675	 11.004960	 0.492750	-2.503906	 22.365070	 2.249330	 3.508433	-10.858530	-0.456495	-94.327680	 74.053410	 164.598500	 17.870830	 15.640050	-52.951130	-14.479560	 14.399580	-33.887060	-33.983840	-60.801460	-27.882680	-2.027600	 6.559038	 9.033609	-5.188889	 0.308190	 3.541030	-5.234859	 0.342567	 0.430617	-1.777772	-15.156580	-0.983056	 4.546468	 4.898395	-2.553422	 93.965150	 67.796040	-166.261600	-16.791130	 16.501270	 46.283460	-0.328034	 11.765780	 57.585240	 5.160091	-58.260570	 13.717900	 1.803333	 3.979147	-15.098590	 4.898592	 3.004813	-9.310344	 5.224449	 0.395017	 2.014677
